<svg width="1600" height="324" viewBox="0 0 1600 324" fill="none" xmlns="http://www.w3.org/2000/svg">
<g clip-path="url(#clip0_62_4)">
<path d="M125.239 143.037L132.354 127.443L149.235 135.626L232.137 175.809L294.685 48.1444C269.017 26.7741 236.011 13.9148 200 13.9148C118.215 13.9148 51.9148 80.2148 51.9148 162.002C51.9148 193.282 61.6222 222.291 78.1759 246.198L125.241 143.039L125.239 143.037Z" fill="url(#paint0_linear_62_4)"/>
<path d="M261.311 214.885L250.237 234.404L231.981 223.944L147.148 175.339L93.2111 264.587C120.157 292.63 158.037 310.085 199.998 310.085C281.783 310.085 348.083 243.785 348.083 161.998C348.083 136.863 341.813 113.196 330.765 92.4611L261.309 214.883L261.311 214.885Z" fill="url(#paint1_linear_62_4)"/>
<path d="M556 64.56V96.2H474.52V146.32H536.96V177.4H474.52V260H435.32V64.56H556ZM622.997 128.96C628.037 120.747 634.57 114.307 642.597 109.64C650.81 104.973 660.143 102.64 670.597 102.64V143.8H660.237C647.917 143.8 638.583 146.693 632.237 152.48C626.077 158.267 622.997 168.347 622.997 182.72V260H583.797V104.88H622.997V128.96ZM843.44 104.88V260H803.96V240.4C798.92 247.12 792.293 252.44 784.08 256.36C776.053 260.093 767.28 261.96 757.76 261.96C745.626 261.96 734.893 259.44 725.56 254.4C716.226 249.173 708.853 241.613 703.44 231.72C698.213 221.64 695.6 209.693 695.6 195.88V104.88H734.8V190.28C734.8 202.6 737.88 212.12 744.04 218.84C750.2 225.373 758.6 228.64 769.24 228.64C780.066 228.64 788.56 225.373 794.72 218.84C800.88 212.12 803.96 202.6 803.96 190.28V104.88H843.44ZM872.037 182.44C872.037 166.387 875.304 152.387 881.837 140.44C888.37 128.307 897.424 118.973 908.997 112.44C920.57 105.72 933.824 102.36 948.757 102.36C967.984 102.36 983.85 107.213 996.357 116.92C1009.05 126.44 1017.54 139.88 1021.84 157.24H979.557C977.317 150.52 973.49 145.293 968.077 141.56C962.85 137.64 956.317 135.68 948.477 135.68C937.277 135.68 928.41 139.787 921.877 148C915.344 156.027 912.077 167.507 912.077 182.44C912.077 197.187 915.344 208.667 921.877 216.88C928.41 224.907 937.277 228.92 948.477 228.92C964.344 228.92 974.704 221.827 979.557 207.64H1021.84C1017.54 224.44 1009.05 237.787 996.357 247.68C983.664 257.573 967.797 262.52 948.757 262.52C933.824 262.52 920.57 259.253 908.997 252.72C897.424 246 888.37 236.667 881.837 224.72C875.304 212.587 872.037 198.493 872.037 182.44ZM1096.19 137.08V212.12C1096.19 217.347 1097.41 221.173 1099.83 223.6C1102.45 225.84 1106.74 226.96 1112.71 226.96H1130.91V260H1106.27C1073.23 260 1056.71 243.947 1056.71 211.84V137.08H1038.23V104.88H1056.71V66.52H1096.19V104.88H1130.91V137.08H1096.19ZM1305.55 104.88V260H1266.07V240.4C1261.03 247.12 1254.4 252.44 1246.19 256.36C1238.16 260.093 1229.39 261.96 1219.87 261.96C1207.74 261.96 1197 259.44 1187.67 254.4C1178.34 249.173 1170.96 241.613 1165.55 231.72C1160.32 221.64 1157.71 209.693 1157.71 195.88V104.88H1196.91V190.28C1196.91 202.6 1199.99 212.12 1206.15 218.84C1212.31 225.373 1220.71 228.64 1231.35 228.64C1242.18 228.64 1250.67 225.373 1256.83 218.84C1262.99 212.12 1266.07 202.6 1266.07 190.28V104.88H1305.55Z" fill="white"/>
</g>
<defs>
<linearGradient id="paint0_linear_62_4" x1="173.3" y1="13.9148" x2="173.3" y2="246.198" gradientUnits="userSpaceOnUse">
<stop offset="0.2" stop-color="#1443FF"/>
<stop offset="1" stop-color="#2F6EFF"/>
</linearGradient>
<linearGradient id="paint1_linear_62_4" x1="220.647" y1="92.4611" x2="220.647" y2="310.085" gradientUnits="userSpaceOnUse">
<stop offset="0.2" stop-color="#1443FF"/>
<stop offset="1" stop-color="#2F6EFF"/>
</linearGradient>
<clipPath id="clip0_62_4">
<rect width="1600" height="324" fill="white"/>
</clipPath>
</defs>
</svg>
