<svg width="1196" height="400" viewBox="0 0 1196 400" fill="none" xmlns="http://www.w3.org/2000/svg">
<g clip-path="url(#clip0_62_4)">
<path d="M125.239 181.037L132.354 165.443L149.235 173.626L232.137 213.809L294.685 86.1444C269.017 64.7741 236.011 51.9148 200 51.9148C118.215 51.9148 51.9148 118.215 51.9148 200.002C51.9148 231.282 61.6222 260.291 78.1759 284.198L125.241 181.039L125.239 181.037Z" fill="url(#paint0_linear_62_4)"/>
<path d="M261.311 252.885L250.237 272.404L231.981 261.944L147.148 213.339L93.2111 302.587C120.157 330.63 158.037 348.085 199.998 348.085C281.783 348.085 348.083 281.785 348.083 199.998C348.083 174.863 341.813 151.196 330.765 130.461L261.309 252.883L261.311 252.885Z" fill="url(#paint1_linear_62_4)"/>
<path d="M536 116.48V143.6H466.16V186.56H519.68V213.2H466.16V284H432.56V116.48H536ZM593.426 171.68C597.746 164.64 603.346 159.12 610.226 155.12C617.266 151.12 625.266 149.12 634.226 149.12V184.4H625.346C614.786 184.4 606.786 186.88 601.346 191.84C596.066 196.8 593.426 205.44 593.426 217.76V284H559.826V151.04H593.426V171.68ZM782.377 151.04V284H748.537V267.2C744.217 272.96 738.537 277.52 731.497 280.88C724.617 284.08 717.097 285.68 708.937 285.68C698.537 285.68 689.337 283.52 681.337 279.2C673.337 274.72 667.017 268.24 662.377 259.76C657.897 251.12 655.657 240.88 655.657 229.04V151.04H689.257V224.24C689.257 234.8 691.897 242.96 697.177 248.72C702.457 254.32 709.657 257.12 718.777 257.12C728.057 257.12 735.337 254.32 740.617 248.72C745.897 242.96 748.537 234.8 748.537 224.24V151.04H782.377ZM806.889 217.52C806.889 203.76 809.689 191.76 815.289 181.52C820.889 171.12 828.649 163.12 838.569 157.52C848.489 151.76 859.849 148.88 872.649 148.88C889.129 148.88 902.729 153.04 913.449 161.36C924.329 169.52 931.609 181.04 935.289 195.92H899.049C897.129 190.16 893.849 185.68 889.209 182.48C884.729 179.12 879.129 177.44 872.409 177.44C862.809 177.44 855.209 180.96 849.609 188C844.009 194.88 841.209 204.72 841.209 217.52C841.209 230.16 844.009 240 849.609 247.04C855.209 253.92 862.809 257.36 872.409 257.36C886.009 257.36 894.889 251.28 899.049 239.12H935.289C931.609 253.52 924.329 264.96 913.449 273.44C902.569 281.92 888.969 286.16 872.649 286.16C859.849 286.16 848.489 283.36 838.569 277.76C828.649 272 820.889 264 815.289 253.76C809.689 243.36 806.889 231.28 806.889 217.52ZM999.024 178.64V242.96C999.024 247.44 1000.06 250.72 1002.14 252.8C1004.38 254.72 1008.06 255.68 1013.18 255.68H1028.78V284H1007.66C979.344 284 965.184 270.24 965.184 242.72V178.64H949.344V151.04H965.184V118.16H999.024V151.04H1028.78V178.64H999.024ZM1178.47 151.04V284H1144.63V267.2C1140.31 272.96 1134.63 277.52 1127.59 280.88C1120.71 284.08 1113.19 285.68 1105.03 285.68C1094.63 285.68 1085.43 283.52 1077.43 279.2C1069.43 274.72 1063.11 268.24 1058.47 259.76C1053.99 251.12 1051.75 240.88 1051.75 229.04V151.04H1085.35V224.24C1085.35 234.8 1087.99 242.96 1093.27 248.72C1098.55 254.32 1105.75 257.12 1114.87 257.12C1124.15 257.12 1131.43 254.32 1136.71 248.72C1141.99 242.96 1144.63 234.8 1144.63 224.24V151.04H1178.47Z" fill="white"/>
</g>
<defs>
<linearGradient id="paint0_linear_62_4" x1="173.3" y1="51.9148" x2="173.3" y2="284.198" gradientUnits="userSpaceOnUse">
<stop offset="0.2" stop-color="#1443FF"/>
<stop offset="1" stop-color="#2F6EFF"/>
</linearGradient>
<linearGradient id="paint1_linear_62_4" x1="220.647" y1="130.461" x2="220.647" y2="348.085" gradientUnits="userSpaceOnUse">
<stop offset="0.2" stop-color="#1443FF"/>
<stop offset="1" stop-color="#2F6EFF"/>
</linearGradient>
<clipPath id="clip0_62_4">
<rect width="1196" height="400" fill="white"/>
</clipPath>
</defs>
</svg>
