<svg width="200" height="200" viewBox="0 0 200 200" fill="none" xmlns="http://www.w3.org/2000/svg">
<path d="M62.6194 90.5185L66.1768 82.7213L74.6176 86.813L116.069 106.905L147.343 43.0722C134.508 32.387 118.006 25.9574 100 25.9574C59.1074 25.9574 25.9574 59.1074 25.9574 100.001C25.9574 115.641 30.8111 130.145 39.088 142.099L62.6204 90.5194L62.6194 90.5185Z" fill="url(#paint0_linear_61_24)"/>
<path d="M130.656 126.443L125.119 136.202L115.991 130.972L73.5741 106.669L46.6056 151.293C60.0787 165.315 79.0185 174.043 99.9991 174.043C140.892 174.043 174.042 140.893 174.042 99.9991C174.042 87.4315 170.906 75.5981 165.382 65.2305L130.655 126.442L130.656 126.443Z" fill="url(#paint1_linear_61_24)"/>
<defs>
<linearGradient id="paint0_linear_61_24" x1="86.65" y1="25.9574" x2="86.65" y2="142.099" gradientUnits="userSpaceOnUse">
<stop offset="0.2" stop-color="#1443FF"/>
<stop offset="1" stop-color="#2F6EFF"/>
</linearGradient>
<linearGradient id="paint1_linear_61_24" x1="110.324" y1="65.2305" x2="110.324" y2="174.043" gradientUnits="userSpaceOnUse">
<stop offset="0.2" stop-color="#1443FF"/>
<stop offset="1" stop-color="#2F6EFF"/>
</linearGradient>
</defs>
</svg>
