<?xml version="1.0" encoding="UTF-8"?>
<svg id="Ebene_1" xmlns="http://www.w3.org/2000/svg" version="1.1" viewBox="0 0 2160 2160">
  <!-- Generator: Adobe Illustrator 29.3.1, SVG Export Plug-In . SVG Version: 2.1.0 Build 151)  -->
  <defs>
    <style>
      .st0 {
        fill: #010101;
      }
    </style>
  </defs>
  <path class="st0" d="M676.29,977.6l38.42-84.21,91.16,44.19,447.67,216.99,337.76-689.39c-138.61-115.4-316.84-184.84-511.3-184.84h0c-441.64,0-799.66,358.02-799.66,799.67h0c0,168.91,52.42,325.56,141.81,454.66l254.15-557.06Z"/>
  <path class="st0" d="M1411.08,1365.58l-59.8,105.4-98.58-56.48-458.1-262.47-291.26,481.94h0c145.51,151.43,350.06,245.69,576.65,245.69h0c441.64,0,799.66-358.02,799.66-799.67h0c0-135.73-33.86-263.53-93.52-375.5l-375.06,661.08Z"/>
</svg>