<svg width="376" height="152" viewBox="0 0 376 152" fill="none" xmlns="http://www.w3.org/2000/svg">
<path d="M53.5717 70.3111L55.7061 65.6328L60.7706 68.0878L85.6411 80.1428L104.406 41.8433C96.705 35.4322 86.8033 31.5744 76 31.5744C51.4644 31.5744 31.5744 51.4645 31.5744 76.0006C31.5744 85.3845 34.4867 94.0872 39.4528 101.259L53.5722 70.3117L53.5717 70.3111Z" fill="url(#paint0_linear_62_4)"/>
<path d="M94.3933 91.8656L91.0711 97.7211L85.5944 94.5833L60.1444 80.0017L43.9633 106.776C52.0472 115.189 63.4111 120.426 75.9994 120.426C100.535 120.426 120.425 100.536 120.425 75.9994C120.425 68.4589 118.544 61.3589 115.229 55.1383L94.3928 91.865L94.3933 91.8656Z" fill="url(#paint1_linear_62_4)"/>
<path d="M184 53.328V60.56H165.376V72.016H179.648V79.12H165.376V98H156.416V53.328H184ZM199.314 68.048C200.466 66.1707 201.959 64.6987 203.794 63.632C205.671 62.5653 207.804 62.032 210.194 62.032V71.44H207.826C205.01 71.44 202.876 72.1013 201.426 73.424C200.018 74.7467 199.314 77.0507 199.314 80.336V98H190.354V62.544H199.314V68.048ZM249.701 62.544V98H240.677V93.52C239.525 95.056 238.01 96.272 236.133 97.168C234.298 98.0213 232.293 98.448 230.117 98.448C227.343 98.448 224.89 97.872 222.757 96.72C220.623 95.5253 218.938 93.7973 217.701 91.536C216.506 89.232 215.909 86.5013 215.909 83.344V62.544H224.869V82.064C224.869 84.88 225.573 87.056 226.981 88.592C228.389 90.0853 230.309 90.832 232.741 90.832C235.215 90.832 237.157 90.0853 238.565 88.592C239.973 87.056 240.677 84.88 240.677 82.064V62.544H249.701ZM256.237 80.272C256.237 76.6027 256.984 73.4027 258.477 70.672C259.97 67.8987 262.04 65.7653 264.685 64.272C267.33 62.736 270.36 61.968 273.773 61.968C278.168 61.968 281.794 63.0773 284.653 65.296C287.554 67.472 289.496 70.544 290.477 74.512H280.813C280.301 72.976 279.426 71.7813 278.189 70.928C276.994 70.032 275.501 69.584 273.709 69.584C271.149 69.584 269.122 70.5227 267.629 72.4C266.136 74.2347 265.389 76.8587 265.389 80.272C265.389 83.6427 266.136 86.2667 267.629 88.144C269.122 89.9787 271.149 90.896 273.709 90.896C277.336 90.896 279.704 89.2747 280.813 86.032H290.477C289.496 89.872 287.554 92.9227 284.653 95.184C281.752 97.4453 278.125 98.576 273.773 98.576C270.36 98.576 267.33 97.8293 264.685 96.336C262.04 94.8 259.97 92.6667 258.477 89.936C256.984 87.1627 256.237 83.9413 256.237 80.272ZM307.473 69.904V87.056C307.473 88.2507 307.75 89.1253 308.305 89.68C308.902 90.192 309.884 90.448 311.249 90.448H315.409V98H309.777C302.225 98 298.449 94.3307 298.449 86.992V69.904H294.225V62.544H298.449V53.776H307.473V62.544H315.409V69.904H307.473ZM355.326 62.544V98H346.302V93.52C345.15 95.056 343.635 96.272 341.758 97.168C339.923 98.0213 337.918 98.448 335.742 98.448C332.968 98.448 330.515 97.872 328.382 96.72C326.248 95.5253 324.563 93.7973 323.326 91.536C322.131 89.232 321.534 86.5013 321.534 83.344V62.544H330.494V82.064C330.494 84.88 331.198 87.056 332.606 88.592C334.014 90.0853 335.934 90.832 338.366 90.832C340.84 90.832 342.782 90.0853 344.19 88.592C345.598 87.056 346.302 84.88 346.302 82.064V62.544H355.326Z" fill="black"/>
<defs>
<linearGradient id="paint0_linear_62_4" x1="67.99" y1="31.5744" x2="67.99" y2="101.259" gradientUnits="userSpaceOnUse">
<stop offset="0.2" stop-color="#1443FF"/>
<stop offset="1" stop-color="#2F6EFF"/>
</linearGradient>
<linearGradient id="paint1_linear_62_4" x1="82.1942" y1="55.1383" x2="82.1942" y2="120.426" gradientUnits="userSpaceOnUse">
<stop offset="0.2" stop-color="#1443FF"/>
<stop offset="1" stop-color="#2F6EFF"/>
</linearGradient>
</defs>
</svg>
