<svg width="646" height="240" viewBox="0 0 646 240" fill="none" xmlns="http://www.w3.org/2000/svg">
<g clip-path="url(#clip0_62_4)">
<path d="M75.1433 108.622L79.4122 99.2656L89.5411 104.176L139.282 128.286L176.811 51.6867C161.41 38.8645 141.607 31.1489 120 31.1489C70.9289 31.1489 31.1489 70.9289 31.1489 120.001C31.1489 138.769 36.9733 156.174 46.9056 170.519L75.1445 108.623L75.1433 108.622Z" fill="url(#paint0_linear_62_4)"/>
<path d="M156.787 151.731L150.142 163.442L139.189 157.167L88.2889 128.003L55.9267 181.552C72.0944 198.378 94.8222 208.851 119.999 208.851C169.07 208.851 208.85 169.071 208.85 119.999C208.85 104.918 205.088 90.7178 198.459 78.2767L156.786 151.73L156.787 151.731Z" fill="url(#paint1_linear_62_4)"/>
<path d="M316 78.24V91.8H281.08V113.28H307.84V126.6H281.08V162H264.28V78.24H316ZM344.713 105.84C346.873 102.32 349.673 99.56 353.113 97.56C356.633 95.56 360.633 94.56 365.113 94.56V112.2H360.673C355.393 112.2 351.393 113.44 348.673 115.92C346.033 118.4 344.713 122.72 344.713 128.88V162H327.913V95.52H344.713V105.84ZM439.188 95.52V162H422.268V153.6C420.108 156.48 417.268 158.76 413.748 160.44C410.308 162.04 406.548 162.84 402.468 162.84C397.268 162.84 392.668 161.76 388.668 159.6C384.668 157.36 381.508 154.12 379.188 149.88C376.948 145.56 375.828 140.44 375.828 134.52V95.52H392.628V132.12C392.628 137.4 393.948 141.48 396.588 144.36C399.228 147.16 402.828 148.56 407.388 148.56C412.028 148.56 415.668 147.16 418.308 144.36C420.948 141.48 422.268 137.4 422.268 132.12V95.52H439.188ZM451.444 128.76C451.444 121.88 452.844 115.88 455.644 110.76C458.444 105.56 462.324 101.56 467.284 98.76C472.244 95.88 477.924 94.44 484.324 94.44C492.564 94.44 499.364 96.52 504.724 100.68C510.164 104.76 513.804 110.52 515.644 117.96H497.524C496.564 115.08 494.924 112.84 492.604 111.24C490.364 109.56 487.564 108.72 484.204 108.72C479.404 108.72 475.604 110.48 472.804 114C470.004 117.44 468.604 122.36 468.604 128.76C468.604 135.08 470.004 140 472.804 143.52C475.604 146.96 479.404 148.68 484.204 148.68C491.004 148.68 495.444 145.64 497.524 139.56H515.644C513.804 146.76 510.164 152.48 504.724 156.72C499.284 160.96 492.484 163.08 484.324 163.08C477.924 163.08 472.244 161.68 467.284 158.88C462.324 156 458.444 152 455.644 146.88C452.844 141.68 451.444 135.64 451.444 128.76ZM547.512 109.32V141.48C547.512 143.72 548.032 145.36 549.072 146.4C550.192 147.36 552.032 147.84 554.592 147.84H562.392V162H551.832C537.672 162 530.592 155.12 530.592 141.36V109.32H522.672V95.52H530.592V79.08H547.512V95.52H562.392V109.32H547.512ZM637.235 95.52V162H620.315V153.6C618.155 156.48 615.315 158.76 611.795 160.44C608.355 162.04 604.595 162.84 600.515 162.84C595.315 162.84 590.715 161.76 586.715 159.6C582.715 157.36 579.555 154.12 577.235 149.88C574.995 145.56 573.875 140.44 573.875 134.52V95.52H590.675V132.12C590.675 137.4 591.995 141.48 594.635 144.36C597.275 147.16 600.875 148.56 605.435 148.56C610.075 148.56 613.715 147.16 616.355 144.36C618.995 141.48 620.315 137.4 620.315 132.12V95.52H637.235Z" fill="black"/>
</g>
<defs>
<linearGradient id="paint0_linear_62_4" x1="103.98" y1="31.1489" x2="103.98" y2="170.519" gradientUnits="userSpaceOnUse">
<stop offset="0.2" stop-color="#1443FF"/>
<stop offset="1" stop-color="#2F6EFF"/>
</linearGradient>
<linearGradient id="paint1_linear_62_4" x1="132.388" y1="78.2767" x2="132.388" y2="208.851" gradientUnits="userSpaceOnUse">
<stop offset="0.2" stop-color="#1443FF"/>
<stop offset="1" stop-color="#2F6EFF"/>
</linearGradient>
<clipPath id="clip0_62_4">
<rect width="646" height="240" fill="white"/>
</clipPath>
</defs>
</svg>
